<svg width="141" height="47" viewBox="0 0 141 47" fill="none" xmlns="http://www.w3.org/2000/svg">
<path d="M35.0528 25.1828C33.9895 25.1828 33.2815 26.0451 33.2815 27.7315C33.2815 29.4178 33.9895 30.324 35.0528 30.324C36.1162 30.324 36.8256 29.4178 36.8256 27.7315C36.8256 26.0451 36.1176 25.1828 35.0528 25.1828ZM35.0528 29.4363C34.6663 29.4363 34.3661 29.0823 34.3661 27.7315C34.3661 26.3807 34.6663 26.0706 35.0528 26.0706C35.4394 26.0706 35.7395 26.3793 35.7395 27.7315C35.7395 29.0837 35.438 29.4363 35.0528 29.4363Z" fill="#42BB93"/>
<path d="M42.7186 29.3046V30.2306H39.561V29.3046H40.6428V26.4387H39.7154V25.7265C40.2463 25.626 40.5975 25.4901 40.9444 25.2762H41.7897V29.3046H42.7186Z" fill="#42BB93"/>
<path d="M23.9747 37.4858V38.4118H20.8171V37.4858H21.9003V34.62H20.9715V33.9078C21.5024 33.8072 21.8536 33.6713 22.2005 33.4575H23.0458V37.4858H23.9732H23.9747Z" fill="#42BB93"/>
<path d="M27.1917 33.3654C26.127 33.3654 25.4204 34.2277 25.4204 35.9141C25.4204 37.6005 26.127 38.5067 27.1917 38.5067C28.2565 38.5067 28.9645 37.6005 28.9645 35.9141C28.9645 34.2277 28.2565 33.3654 27.1917 33.3654ZM27.1917 37.6189C26.8052 37.6189 26.505 37.2649 26.505 35.9141C26.505 34.5633 26.8066 34.2532 27.1917 34.2532C27.5769 34.2532 27.8785 34.5619 27.8785 35.9141C27.8785 37.2663 27.5769 37.6189 27.1917 37.6189Z" fill="#42BB93"/>
<path d="M32.1829 33.3654C31.1181 33.3654 30.4102 34.2277 30.4102 35.9141C30.4102 37.6005 31.1181 38.5067 32.1829 38.5067C33.2477 38.5067 33.9556 37.6005 33.9556 35.9141C33.9556 34.2277 33.2477 33.3654 32.1829 33.3654ZM32.1829 37.6189C31.7963 37.6189 31.4962 37.2649 31.4962 35.9141C31.4962 34.5633 31.7978 34.2532 32.1829 34.2532C32.568 34.2532 32.8696 34.5619 32.8696 35.9141C32.8696 37.2663 32.568 37.6189 32.1829 37.6189Z" fill="#42BB93"/>
<path d="M37.1726 33.3654C36.1079 33.3654 35.3999 34.2277 35.3999 35.9141C35.3999 37.6005 36.1079 38.5067 37.1726 38.5067C38.2374 38.5067 38.944 37.6005 38.944 35.9141C38.944 34.2277 38.2374 33.3654 37.1726 33.3654ZM37.1726 37.6189C36.7861 37.6189 36.4859 37.2649 36.4859 35.9141C36.4859 34.5633 36.7875 34.2532 37.1726 34.2532C37.5578 34.2532 37.8594 34.5619 37.8594 35.9141C37.8594 37.2663 37.5592 37.6189 37.1726 37.6189Z" fill="#42BB93"/>
<path d="M27.5257 41.5467C26.4609 41.5467 25.7544 42.409 25.7544 44.0953C25.7544 45.7817 26.4609 46.6879 27.5257 46.6879C28.5905 46.6879 29.2985 45.7817 29.2985 44.0953C29.2985 42.409 28.5905 41.5467 27.5257 41.5467ZM27.5257 45.8015C27.1392 45.8015 26.839 45.4475 26.839 44.0967C26.839 42.746 27.1406 42.4359 27.5257 42.4359C27.9109 42.4359 28.2124 42.7445 28.2124 44.0967C28.2124 45.449 27.9109 45.8015 27.5257 45.8015Z" fill="#42BB93"/>
<path d="M34.4539 45.6685V46.5945H31.2964V45.6685H32.3796V42.8026H31.4507V42.0904C31.9817 41.9899 32.3328 41.8539 32.6797 41.6401H33.5251V45.6685H34.4525H34.4539Z" fill="#42BB93"/>
<path d="M2.27274 8.72119C1.20796 8.72119 0.5 9.58349 0.5 11.2699C0.5 12.9562 1.20796 13.8624 2.27274 13.8624C3.33752 13.8624 4.04549 12.9562 4.04549 11.2699C4.04549 9.58349 3.33752 8.72119 2.27274 8.72119ZM2.27274 12.9746C1.88619 12.9746 1.58602 12.6207 1.58602 11.2699C1.58602 9.91907 1.88761 9.60898 2.27274 9.60898C2.65788 9.60898 2.95947 9.91765 2.95947 11.2699C2.95947 12.6221 2.65788 12.9746 2.27274 12.9746Z" fill="#E5A639"/>
<path d="M8.26913 8.72119C7.20577 8.72119 6.4978 9.58349 6.4978 11.2699C6.4978 12.9562 7.20577 13.8624 8.26913 13.8624C9.33249 13.8624 10.0419 12.9562 10.0419 11.2699C10.0419 9.58349 9.33391 8.72119 8.26913 8.72119ZM8.26913 12.9746C7.88258 12.9746 7.5824 12.6207 7.5824 11.2699C7.5824 9.91907 7.88258 9.60898 8.26913 9.60898C8.65568 9.60898 8.95586 9.91765 8.95586 11.2699C8.95586 12.6221 8.65426 12.9746 8.26913 12.9746Z" fill="#E5A639"/>
<path d="M7.35594 0.313416C6.26426 0.313416 5.53931 1.19696 5.53931 2.92581C5.53931 4.65465 6.26426 5.58209 7.35594 5.58209C8.44763 5.58209 9.17258 4.65324 9.17258 2.92581C9.17258 1.19837 8.44763 0.313416 7.35594 0.313416ZM7.35594 4.67306C6.95948 4.67306 6.65223 4.31058 6.65223 2.92439C6.65223 1.53819 6.9609 1.22103 7.35594 1.22103C7.75099 1.22103 8.05966 1.53819 8.05966 2.92439C8.05966 4.31058 7.75099 4.67306 7.35594 4.67306Z" fill="#E5A639"/>
<path d="M14.0576 4.53858V5.48725H10.8208V4.53858H11.9309V1.60053H10.9808V0.871322C11.5245 0.767959 11.8842 0.629198 12.2396 0.409729H13.1061V4.53858H14.0576Z" fill="#E5A639"/>
<path d="M15.5811 2.9244C15.5811 1.19697 16.306 0.312012 17.3977 0.312012C18.4894 0.312012 19.2143 1.20263 19.2143 2.9244C19.2143 4.64617 18.4894 5.5821 17.3977 5.5821C16.306 5.5821 15.5811 4.65325 15.5811 2.9244ZM18.1014 2.9244C18.1014 1.53962 17.7927 1.22104 17.3977 1.22104C17.0026 1.22104 16.694 1.53821 16.694 2.9244C16.694 4.3106 17.0026 4.67307 17.3977 4.67307C17.7927 4.67307 18.1014 4.3106 18.1014 2.9244Z" fill="#E5A639"/>
<path d="M22.4187 0.313416C21.327 0.313416 20.6021 1.19696 20.6021 2.92581C20.6021 4.65465 21.327 5.58209 22.4187 5.58209C23.5104 5.58209 24.2353 4.65324 24.2353 2.92581C24.2353 1.19837 23.5104 0.313416 22.4187 0.313416ZM22.4187 4.67306C22.0222 4.67306 21.7136 4.31058 21.7136 2.92439C21.7136 1.53819 22.0222 1.22103 22.4187 1.22103C22.8151 1.22103 23.1224 1.53819 23.1224 2.92439C23.1224 4.31058 22.8137 4.67306 22.4187 4.67306Z" fill="#E5A639"/>
<path d="M27.4394 0.313416C26.3478 0.313416 25.6228 1.19696 25.6228 2.92581C25.6228 4.65465 26.3478 5.58209 27.4394 5.58209C28.5311 5.58209 29.2561 4.65324 29.2561 2.92581C29.2561 1.19837 28.5311 0.313416 27.4394 0.313416ZM27.4394 4.67306C27.043 4.67306 26.7357 4.31058 26.7357 2.92439C26.7357 1.53819 27.0444 1.22103 27.4394 1.22103C27.8345 1.22103 28.1446 1.53819 28.1446 2.92439C28.1446 4.31058 27.8359 4.67306 27.4394 4.67306Z" fill="#E5A639"/>
<path d="M34.1411 4.53858V5.48725H30.9043V4.53858H32.0144V1.60053H31.0643V0.871322C31.6094 0.767959 31.9677 0.629198 32.3245 0.409729H33.191V4.53858H34.1411Z" fill="#E5A639"/>
<path d="M14.2657 8.72119C13.2009 8.72119 12.4929 9.58349 12.4929 11.2699C12.4929 12.9562 13.2009 13.8624 14.2657 13.8624C15.3304 13.8624 16.0384 12.9562 16.0384 11.2699C16.0384 9.58349 15.3304 8.72119 14.2657 8.72119ZM14.2657 12.9746C13.8791 12.9746 13.5789 12.6207 13.5789 11.2699C13.5789 9.91907 13.8805 9.60898 14.2657 9.60898C14.6508 9.60898 14.9524 9.91765 14.9524 11.2699C14.9524 12.6221 14.6508 12.9746 14.2657 12.9746Z" fill="#EE3481"/>
<path d="M21.6485 12.8416V13.7676H18.491V12.8416H19.5742V9.97571H18.6453V9.2635C19.1763 9.16297 19.5274 9.02704 19.8743 8.81323H20.7196V12.8416H21.6485Z" fill="#EE3481"/>
<path d="M27.2584 12.8416V13.7676H24.1008V12.8416H25.1826V9.97571H24.2552V9.2635C24.7861 9.16297 25.1373 9.02704 25.4842 8.81323H26.3309V12.8416H27.2584Z" fill="#EE3481"/>
<path d="M31.4806 8.72119C30.4172 8.72119 29.7092 9.58349 29.7092 11.2699C29.7092 12.9562 30.4172 13.8624 31.4806 13.8624C32.5439 13.8624 33.2533 12.9562 33.2533 11.2699C33.2533 9.58349 32.5453 8.72119 31.4806 8.72119ZM31.4806 12.9746C31.094 12.9746 30.7938 12.6207 30.7938 11.2699C30.7938 9.91907 31.094 9.60898 31.4806 9.60898C31.8671 9.60898 32.1673 9.91765 32.1673 11.2699C32.1673 12.6221 31.8657 12.9746 31.4806 12.9746Z" fill="#EE3481"/>
<path d="M37.4783 8.72119C36.4135 8.72119 35.7056 9.58349 35.7056 11.2699C35.7056 12.9562 36.4135 13.8624 37.4783 13.8624C38.5431 13.8624 39.2511 12.9562 39.2511 11.2699C39.2511 9.58349 38.5431 8.72119 37.4783 8.72119ZM37.4783 12.9746C37.0918 12.9746 36.7916 12.6207 36.7916 11.2699C36.7916 9.91907 37.0932 9.60898 37.4783 9.60898C37.8634 9.60898 38.165 9.91765 38.165 11.2699C38.165 12.6221 37.8634 12.9746 37.4783 12.9746Z" fill="#EE3481"/>
<path d="M3.53012 17.0001C2.46534 17.0001 1.75879 17.8624 1.75879 19.5488C1.75879 21.2352 2.46534 22.1414 3.53012 22.1414C4.5949 22.1414 5.30286 21.2352 5.30286 19.5488C5.30286 17.8624 4.5949 17.0001 3.53012 17.0001ZM3.53012 21.255C3.14357 21.255 2.84339 20.901 2.84339 19.5502C2.84339 18.1994 3.14498 17.8893 3.53012 17.8893C3.91525 17.8893 4.21684 18.198 4.21684 19.5502C4.21684 20.9024 3.91525 21.255 3.53012 21.255Z" fill="#EE3481"/>
<path d="M9.28715 17.0001C8.22237 17.0001 7.5144 17.8624 7.5144 19.5488C7.5144 21.2352 8.22237 22.1414 9.28715 22.1414C10.3519 22.1414 11.0585 21.2352 11.0585 19.5488C11.0585 17.8624 10.3505 17.0001 9.28715 17.0001ZM9.28715 21.255C8.9006 21.255 8.60042 20.901 8.60042 19.5502C8.60042 18.1994 8.90201 17.8893 9.28715 17.8893C9.67228 17.8893 9.97387 18.198 9.97387 19.5502C9.97387 20.9024 9.6737 21.255 9.28715 21.255Z" fill="#EE3481"/>
<path d="M16.4266 21.1219V22.0479H13.269V21.1219H14.3522V18.256H13.4234V17.5438C13.9544 17.4433 14.3055 17.3074 14.6524 17.0936H15.4977V21.1219H16.4251H16.4266Z" fill="#EE3481"/>
<path d="M22.4937 25.1827C21.4289 25.1827 20.7209 26.045 20.7209 27.7314C20.7209 29.4178 21.4289 30.324 22.4937 30.324C23.5585 30.324 24.265 29.4178 24.265 27.7314C24.265 26.045 23.5585 25.1827 22.4937 25.1827ZM22.4937 29.4362C22.1071 29.4362 21.807 29.0822 21.807 27.7314C21.807 26.3806 22.1086 26.0705 22.4937 26.0705C22.8788 26.0705 23.1804 26.3792 23.1804 27.7314C23.1804 29.0836 22.8788 29.4362 22.4937 29.4362Z" fill="#1FB5DD"/>
<path d="M28.7735 25.1827C27.7087 25.1827 27.0007 26.045 27.0007 27.7314C27.0007 29.4178 27.7087 30.324 28.7735 30.324C29.8383 30.324 30.5462 29.4178 30.5462 27.7314C30.5462 26.045 29.8383 25.1827 28.7735 25.1827ZM28.7735 29.4362C28.3869 29.4362 28.0867 29.0822 28.0867 27.7314C28.0867 26.3806 28.3883 26.0705 28.7735 26.0705C29.1586 26.0705 29.4602 26.3792 29.4602 27.7314C29.4602 29.0836 29.1586 29.4362 28.7735 29.4362Z" fill="#1FB5DD"/>
<path d="M20.4095 17.0001C19.3447 17.0001 18.6367 17.8624 18.6367 19.5488C18.6367 21.2352 19.3447 22.1414 20.4095 22.1414C21.4742 22.1414 22.1808 21.2352 22.1808 19.5488C22.1808 17.8624 21.4728 17.0001 20.4095 17.0001ZM20.4095 21.255C20.0229 21.255 19.7227 20.901 19.7227 19.5502C19.7227 18.1994 20.0243 17.8893 20.4095 17.8893C20.7946 17.8893 21.0962 18.198 21.0962 19.5502C21.0962 20.9024 20.796 21.255 20.4095 21.255Z" fill="#1FB5DD"/>
<path d="M27.5486 21.1218V22.0478H24.3911V21.1218H25.4743V18.256H24.5454V17.5438C25.0764 17.4432 25.4276 17.3073 25.7745 17.0935H26.6198V21.1218H27.5472H27.5486Z" fill="#1FB5DD"/>
<path d="M32.9163 21.1218V22.0478H29.7588V21.1218H30.8406V18.256H29.9131V17.5438C30.4441 17.4432 30.7953 17.3073 31.1422 17.0935H31.9875V21.1218H32.9163Z" fill="#1FB5DD"/>
<path d="M38.2842 21.1218V22.0478H35.1267V21.1218H36.2099V18.256H35.281V17.5438C35.812 17.4432 36.1632 17.3073 36.5101 17.0935H37.3554V21.1218H38.2828H38.2842Z" fill="#1FB5DD"/>
<path d="M42.2671 17.0001C41.2023 17.0001 40.4944 17.8624 40.4944 19.5488C40.4944 21.2352 41.2023 22.1414 42.2671 22.1414C43.3319 22.1414 44.0385 21.2352 44.0385 19.5488C44.0385 17.8624 43.3305 17.0001 42.2671 17.0001ZM42.2671 21.255C41.8806 21.255 41.5804 20.901 41.5804 19.5502C41.5804 18.1994 41.882 17.8893 42.2671 17.8893C42.6523 17.8893 42.9539 18.198 42.9539 19.5502C42.9539 20.9024 42.6537 21.255 42.2671 21.255Z" fill="#1FB5DD"/>
<path d="M49.1941 21.1601V22.1088H45.9573V21.1601H47.0674V18.222H46.1173V17.4928C46.661 17.3895 47.0206 17.2507 47.376 17.0312H48.2426V21.1601H49.1941Z" fill="#1FB5DD"/>
<path d="M57.6993 20.1343V10.2058C57.6993 9.3421 57.1541 8.97821 56.1318 8.84228V8.11591H62.403C67.22 8.11591 70.3548 10.0925 70.3548 15.0455C70.3548 20.9754 65.6738 22.1803 62.8801 22.1803C61.9485 22.1803 60.1984 22.0444 58.9722 22.0444C58.0179 22.0444 57.1088 22.1124 56.1318 22.2256V21.4993C57.1541 21.3633 57.6993 20.9994 57.6993 20.1357V20.1343ZM62.4483 21.2699C65.6752 21.2699 66.992 18.4975 66.992 15.044C66.992 11.2267 65.3566 9.02352 62.5389 9.02352H62.2203C61.2433 9.02352 60.7888 9.36475 60.7888 10.2271V20.1102C60.7888 21.0872 61.6525 21.2685 62.4469 21.2685L62.4483 21.2699Z" fill="#0F2542"/>
<path d="M70.8447 19.8611C70.8447 18.0203 72.3895 16.9074 76.8199 16.2717C77.4557 16.1811 77.6384 16.0211 77.6384 15.4306V15.0667C77.6384 13.4313 77.1159 12.5903 75.8203 12.5903C73.2306 12.5903 75.2072 15.6118 72.844 15.6118C71.935 15.6118 71.5031 15.0441 71.5031 14.3163C71.5031 12.5662 73.9796 11.7719 76.4787 11.7719C79.1605 11.7719 80.364 12.7488 80.364 15.9064V20.2462C80.364 21.0193 80.6373 21.3591 81.2957 21.1326V21.5418C80.9998 22.1322 80.3414 22.3602 79.6376 22.3602C78.3647 22.3602 77.7743 21.6097 77.6837 20.7927C77.661 20.5195 77.4798 20.4742 77.2745 20.7248C76.6387 21.5205 75.4564 22.3602 73.821 22.3602C72.2762 22.3602 70.8447 21.6338 70.8447 19.8611ZM75.2299 20.838C76.616 20.838 77.6384 19.7704 77.6384 18.3389V17.7485C77.6384 17.226 77.4571 16.998 76.7293 17.0674C74.2076 17.294 73.6398 18.431 73.6398 19.3173C73.6398 20.1357 74.1169 20.8395 75.2299 20.8395V20.838Z" fill="#0F2542"/>
<path d="M82.5135 19.2706V13.7272C82.5135 13.0235 82.3323 12.8862 81.9004 12.8862H80.8555V12.2504C82.4682 11.7959 83.3093 11.0002 84.0371 9.77396C84.173 9.54741 84.3103 9.47803 84.5369 9.47803H84.8555C85.1061 9.47803 85.2647 9.63661 85.2647 9.88723L85.242 11.364C85.242 11.8412 85.4459 11.9771 86.5376 11.9771H88.1277V13.0221L86.5376 12.9315C85.4473 12.8635 85.242 13.0674 85.242 13.7725V19.0894C85.242 20.3849 85.4232 21.2246 86.5376 21.2246C86.9468 21.2246 87.3786 21.1113 87.7411 20.8154C88.0371 21.134 88.0824 21.4058 87.8771 21.5885C87.3999 22.0203 86.6041 22.3389 85.5592 22.3389C83.6958 22.3389 82.5149 21.3393 82.5149 19.272L82.5135 19.2706Z" fill="#0F2542"/>
<path d="M88.4221 19.8611C88.4221 18.0203 89.9669 16.9074 94.3973 16.2717C95.0331 16.1811 95.2158 16.0211 95.2158 15.4306V15.0667C95.2158 13.4313 94.6933 12.5903 93.3977 12.5903C90.808 12.5903 92.7846 15.6118 90.4214 15.6118C89.5124 15.6118 89.0805 15.0441 89.0805 14.3163C89.0805 12.5662 91.557 11.7719 94.0561 11.7719C96.7379 11.7719 97.9414 12.7488 97.9414 15.9064V20.2462C97.9414 21.0193 98.2147 21.3591 98.8731 21.1326V21.5418C98.5772 22.1322 97.9188 22.3602 97.215 22.3602C95.9421 22.3602 95.3517 21.6097 95.2611 20.7927C95.2384 20.5195 95.0572 20.4742 94.8519 20.7248C94.2161 21.5205 93.0338 22.3602 91.3984 22.3602C89.8536 22.3602 88.4221 21.6338 88.4221 19.8611ZM92.8073 20.838C94.1935 20.838 95.2158 19.7704 95.2158 18.3389V17.7485C95.2158 17.226 95.0345 16.998 94.3067 17.0674C91.785 17.294 91.2172 18.431 91.2172 19.3173C91.2172 20.1357 91.6943 20.8395 92.8073 20.8395V20.838Z" fill="#0F2542"/>
<path d="M97.7375 12.6809V11.9772H103.054V12.6809C101.851 13.0221 101.896 13.4073 102.328 14.6802L103.827 19.0427C104.123 19.929 104.486 19.929 104.759 19.0427L105.418 16.9301C105.691 16.0437 105.827 14.9988 105.576 14.203C105.303 13.362 104.826 12.9301 104.122 12.6809V11.9772H109.439V12.6809C108.234 13.0221 108.281 13.4073 108.712 14.6802L110.212 19.0427C110.508 19.929 110.87 19.929 111.144 19.0427L111.825 16.8848C112.915 13.4313 112.643 13.0221 111.257 12.6809V11.9772H115.687V12.6809C114.324 13.0221 113.915 13.454 113.483 14.6802L110.778 22.2243H108.666L106.53 16.249L104.395 22.2243H102.283L99.5783 14.6802C99.1464 13.4526 98.7145 13.0221 97.7375 12.6809Z" fill="#0F2542"/>
<path d="M117.369 20.0664V14.3403C117.369 13.2954 116.938 13.0221 115.938 13.1127V12.409L119.097 11.8186C119.755 11.7053 120.097 11.9998 120.097 12.6143V20.0664C120.097 21.1113 120.483 21.4299 121.528 21.5205V22.2242H115.915V21.5205C116.983 21.4299 117.369 21.1113 117.369 20.0664ZM118.482 7.02423C119.346 7.02423 120.072 7.70529 120.072 8.61432C120.072 9.52335 119.346 10.2044 118.482 10.2044C117.619 10.2044 116.87 9.52335 116.87 8.61432C116.87 7.70529 117.596 7.02423 118.482 7.02423Z" fill="#0F2542"/>
<path d="M121.845 21.3379C121.277 20.157 121.209 18.7708 122.072 18.7708C122.39 18.7708 122.594 18.9294 122.707 19.2706C123.253 20.906 124.207 21.5432 125.548 21.5432C127.07 21.5432 127.502 20.7701 127.502 20.0437C127.502 19.0441 126.57 18.7255 125.139 18.2936C123.298 17.7258 121.549 16.8394 121.549 14.8628C121.549 12.8862 123.39 11.7733 125.73 11.7733C127.094 11.7733 128.365 12.1598 129.139 12.7276C129.706 13.9085 129.774 15.272 128.912 15.272C128.593 15.272 128.39 15.1134 128.276 14.7722C127.731 13.1368 126.754 12.5449 125.594 12.5449C124.504 12.5449 124.004 13.0901 124.004 13.9085C124.004 14.9308 124.868 15.4306 125.958 15.7718C127.594 16.2717 130.048 16.8848 130.048 19.1573C130.048 21.2699 127.867 22.3616 125.389 22.3616C123.89 22.3616 122.617 21.9297 121.845 21.3393V21.3379Z" fill="#0F2542"/>
<path d="M130.43 17.1127C130.43 13.546 133.202 11.7733 136.042 11.7733C138.406 11.7733 140.132 13.0009 140.132 14.8628C140.132 16.7248 138.519 16.9754 135.996 17.1354L134.11 17.2487C133.7 17.2713 133.519 17.4752 133.519 17.975C133.519 19.6557 135.269 20.8154 137.178 20.8154C138.064 20.8154 139.155 20.5648 139.95 19.6118L140.496 20.089C140.064 20.9301 138.451 22.3616 135.907 22.3616C133.066 22.3616 130.431 20.5662 130.431 17.1127H130.43ZM134.134 16.4982L135.315 16.4302C137.133 16.317 137.587 15.9304 137.587 14.8855C137.587 13.7272 137.042 12.6356 135.679 12.6356C133.974 12.6356 133.383 14.3163 133.383 15.5892C133.383 16.2929 133.587 16.5209 134.134 16.4982Z" fill="#0F2542"/>
<path d="M58.4058 36.9768L62.3591 27.9786C62.8136 26.9563 62.9269 26.1605 62.9269 25.7287L64.6317 25.5701L69.5166 36.4302C70.2897 38.135 70.5389 38.8614 71.6971 39.1347V39.8384H65.6299V39.112C66.9934 38.8855 66.9934 38.2936 66.5616 37.294L66.2656 36.6129C65.9924 35.9771 65.4925 35.8865 64.9248 35.8865H61.198C60.5849 35.8865 60.1531 35.9998 59.9025 36.5902L59.6533 37.158C59.1761 38.271 59.7212 38.8855 61.1754 39.112V39.8384H56.1318V39.112C57.4048 38.8387 57.8819 38.1577 58.4044 36.9768H58.4058ZM61.1994 34.9095H64.9035C65.1541 34.9095 65.3807 34.7056 65.2221 34.3417L63.2455 29.934C63.0642 29.5474 62.9722 29.5474 62.8136 29.934L60.8596 34.4097C60.7237 34.7283 60.9729 34.9095 61.2009 34.9095H61.1994Z" fill="#0F2542"/>
<path d="M73.6738 37.7259V31.4547C73.6738 30.7963 73.4925 30.659 73.0607 30.659H71.8557V30.0232C73.0139 29.842 73.6738 29.6593 73.6738 28.9103C73.6738 25.934 75.4692 24.3439 78.0362 24.3439C79.6263 24.3439 80.9446 24.957 80.9446 26.162C80.9446 26.843 80.5127 27.3655 79.649 27.3655C77.8536 27.3655 78.4214 25.1156 77.2405 25.1156C76.5594 25.1156 76.3994 25.8661 76.3994 27.4788V28.9783C76.3994 29.5687 76.65 29.7046 77.7403 29.7046H79.3304V30.7269L77.7403 30.6137C76.65 30.5457 76.3994 30.7949 76.3994 31.5V37.7259C76.3994 38.7255 76.786 39.0441 78.4214 39.1347V39.8384H72.0596V39.1347C73.2872 39.0441 73.6723 38.7255 73.6723 37.7259H73.6738Z" fill="#0F2542"/>
<path d="M81.6114 37.6805V31.9545C81.6114 30.9095 81.1795 30.6363 80.1572 30.7269V30.0232L83.3388 29.4327C83.9972 29.3195 84.3385 29.614 84.3385 30.1365V30.6136C84.3385 31.0228 84.657 31.0908 84.9516 30.7495C85.4514 30.1818 86.2924 29.3407 87.6786 29.3407C89.1555 29.3407 90.0418 30.295 90.0418 31.4306C90.0418 32.3849 89.4287 33.1113 88.3838 33.1113C86.4751 33.1113 87.7933 30.7934 86.3165 30.7934C85.2489 30.7934 84.3399 32.0211 84.3399 34.9053V37.6777C84.3399 38.7226 84.7264 39.0412 85.8847 39.1319V39.8356H80.1586V39.1319C81.2262 39.0412 81.6128 38.7226 81.6128 37.6777L81.6114 37.6805Z" fill="#0F2542"/>
<path d="M91.7227 37.6805V31.9545C91.7227 30.9096 91.2909 30.6363 90.2912 30.7269V30.0232L93.4501 29.4328C94.1086 29.3195 94.4498 29.614 94.4498 30.2285V37.6805C94.4498 38.7255 94.8363 39.0441 95.8813 39.1347V39.8384H90.2686V39.1347C91.3362 39.0441 91.7227 38.7255 91.7227 37.6805ZM92.8356 24.6398C93.6994 24.6398 94.4257 25.3209 94.4257 26.2299C94.4257 27.1389 93.6979 27.82 92.8356 27.82C91.9733 27.82 91.2229 27.1389 91.2229 26.2299C91.2229 25.3209 91.9493 24.6398 92.8356 24.6398Z" fill="#0F2542"/>
<path d="M95.7537 34.7269C95.7537 31.1602 98.6167 29.3875 101.434 29.3875C103.979 29.3875 105.638 30.8416 105.638 32.2958C105.638 32.9995 105.252 33.6593 104.32 33.6593C103.388 33.6593 103.047 32.9782 102.956 32.3411C102.843 31.4547 102.661 30.2512 101.138 30.2512C99.4577 30.2512 98.6393 31.6827 98.6393 33.6593C98.6393 36.5676 100.389 38.4083 102.729 38.4083C103.502 38.4083 104.409 38.2044 105.16 37.1354L105.705 37.5446C105.318 38.5216 103.751 39.9758 101.252 39.9758C98.4567 39.9758 95.7537 38.1577 95.7537 34.7269Z" fill="#0F2542"/>
<path d="M106.226 37.4767C106.226 35.6359 107.771 34.523 112.201 33.8873C112.837 33.7967 113.02 33.6367 113.02 33.0462V32.6823C113.02 31.0469 112.497 30.2059 111.202 30.2059C108.612 30.2059 110.589 33.2275 108.225 33.2275C107.316 33.2275 106.884 32.6597 106.884 31.9319C106.884 30.1818 109.361 29.3875 111.86 29.3875C114.542 29.3875 115.745 30.3644 115.745 33.522V37.8618C115.745 38.6349 116.019 38.9747 116.677 38.7482V39.1574C116.381 39.7478 115.723 39.9758 115.019 39.9758C113.746 39.9758 113.156 39.2253 113.065 38.4083C113.042 38.1351 112.861 38.0898 112.656 38.3404C112.02 39.1361 110.838 39.9758 109.202 39.9758C107.658 39.9758 106.226 39.2494 106.226 37.4767ZM110.611 38.4536C111.997 38.4536 113.02 37.386 113.02 35.9545V35.3641C113.02 34.8416 112.838 34.6136 112.111 34.683C109.589 34.9096 109.021 36.0466 109.021 36.9329C109.021 37.7513 109.498 38.4551 110.611 38.4551V38.4536Z" fill="#0F2542"/>
</svg>
