<svg width="16" height="16" viewBox="0 0 16 16" fill="none" xmlns="http://www.w3.org/2000/svg">
<path d="M4.81998 12.1667C4.11348 12.169 3.43493 11.8909 2.93332 11.3933C2.42408 10.8523 2.14892 10.1322 2.16764 9.38944C2.18637 8.64669 2.49746 7.94134 3.03332 7.42667L5.53998 4.9C6.08484 4.33756 6.83037 4.01394 7.61332 4C7.96501 4.00234 8.31277 4.07423 8.63657 4.21153C8.96036 4.34883 9.2538 4.54883 9.49998 4.8C10.0162 5.34419 10.2955 6.07085 10.2768 6.82067C10.258 7.57049 9.94271 8.28228 9.39998 8.8L8.55998 9.64C8.51421 9.68912 8.45901 9.72853 8.39768 9.75585C8.33634 9.78318 8.27013 9.79788 8.203 9.79906C8.13586 9.80025 8.06918 9.7879 8.00692 9.76275C7.94466 9.7376 7.8881 9.70017 7.84063 9.65269C7.79315 9.60521 7.75572 9.54866 7.73057 9.4864C7.70542 9.42414 7.69307 9.35745 7.69426 9.29032C7.69544 9.22318 7.71014 9.15697 7.73746 9.09564C7.76479 9.03431 7.80419 8.97911 7.85332 8.93333L8.66665 8.06667C9.01645 7.73838 9.2225 7.28527 9.23998 6.80587C9.25746 6.32647 9.08495 5.85955 8.75998 5.50667C8.40472 5.19687 7.94444 5.03465 7.47345 5.05324C7.00245 5.07183 6.55639 5.26983 6.22665 5.60667L3.73998 8.12667C3.39673 8.45417 3.19437 8.90236 3.1757 9.37642C3.15704 9.85048 3.32354 10.3132 3.63998 10.6667C3.8139 10.8385 4.02351 10.97 4.25393 11.0518C4.48436 11.1336 4.72996 11.1637 4.97332 11.14C5.03816 11.1336 5.10363 11.1401 5.16595 11.1591C5.22827 11.1781 5.2862 11.2093 5.33641 11.2508C5.38662 11.2923 5.4281 11.3434 5.45847 11.401C5.48883 11.4587 5.50747 11.5218 5.51332 11.5867C5.52636 11.7183 5.48666 11.8498 5.40294 11.9523C5.31922 12.0548 5.19829 12.1199 5.06665 12.1333L4.81998 12.1667Z" fill="#0F4539"/>
<path d="M8.38673 12C8.03504 11.9977 7.68728 11.9258 7.36348 11.7885C7.03969 11.6512 6.74625 11.4512 6.50006 11.2C5.98389 10.6558 5.70455 9.92916 5.7233 9.17934C5.74204 8.42952 6.05734 7.71773 6.60006 7.20001L7.44006 6.36001C7.48584 6.31088 7.54104 6.27148 7.60237 6.24415C7.6637 6.21683 7.72991 6.20213 7.79705 6.20095C7.86418 6.19976 7.93087 6.21211 7.99313 6.23726C8.05539 6.26241 8.11194 6.29984 8.15942 6.34732C8.2069 6.39479 8.24433 6.45135 8.26948 6.51361C8.29463 6.57587 8.30698 6.64255 8.30579 6.70969C8.30461 6.77682 8.28991 6.84303 8.26258 6.90437C8.23526 6.9657 8.19586 7.0209 8.14673 7.06667L7.3334 7.93334C6.98359 8.26162 6.77755 8.71474 6.76007 9.19414C6.74259 9.67354 6.9151 10.1405 7.24006 10.4933C7.59532 10.8031 8.0556 10.9654 8.5266 10.9468C8.9976 10.9282 9.44366 10.7302 9.7734 10.3933L12.2867 7.87334C12.6263 7.54229 12.8237 7.09219 12.8374 6.61818C12.8511 6.14418 12.6799 5.68342 12.3601 5.33334C12.1861 5.16147 11.9765 5.02997 11.7461 4.94817C11.5157 4.86637 11.2701 4.83627 11.0267 4.86001C10.9619 4.86643 10.8964 4.85995 10.8341 4.84094C10.7718 4.82192 10.7138 4.79075 10.6636 4.74922C10.6134 4.70769 10.5719 4.65663 10.5416 4.59898C10.5112 4.54133 10.4926 4.47824 10.4867 4.41334C10.4737 4.28166 10.5134 4.15018 10.5971 4.04771C10.6808 3.94525 10.8018 3.88015 10.9334 3.86667C11.3215 3.82645 11.7136 3.87187 12.0823 3.99973C12.4509 4.12759 12.7869 4.33478 13.0667 4.60667C13.576 5.14769 13.8511 5.86782 13.8324 6.61057C13.8137 7.35332 13.5026 8.05867 12.9667 8.57334L10.4601 11.1C9.91521 11.6624 9.16968 11.9861 8.38673 12Z" fill="#0F4539"/>
</svg>
