<svg width="323" height="241" viewBox="0 0 323 241" fill="none" xmlns="http://www.w3.org/2000/svg">
<path d="M322.548 211.408H0.451904V211.569H322.548V211.408Z" fill="#E0E0E0"/>
<path d="M78.3415 218.81H69.8381V218.971H78.3415V218.81Z" fill="#E0E0E0"/>
<path d="M65.116 218.888H52.2192V219.049H65.116V218.888Z" fill="#E0E0E0"/>
<path d="M141.524 217.805H108.032V217.966H141.524V217.805Z" fill="#E0E0E0"/>
<path d="M154.414 216.066H136.441V216.227H154.414V216.066Z" fill="#E0E0E0"/>
<path d="M258.406 221.161H216.469V221.322H258.406V221.161Z" fill="#E0E0E0"/>
<path d="M212.894 221.161H202.574V221.322H212.894V221.161Z" fill="#E0E0E0"/>
<path d="M270.156 217.271H251.712V217.432H270.156V217.271Z" fill="#E0E0E0"/>
<path d="M153.126 182.678H28.7385C27.7641 182.676 26.8302 182.288 26.1417 181.598C25.4533 180.908 25.0666 179.974 25.0667 178.999V4.14613C25.0751 3.17728 25.4655 2.2509 26.153 1.56821C26.8406 0.885522 27.7697 0.50166 28.7385 0.5H153.126C154.101 0.5 155.037 0.887538 155.727 1.57736C156.416 2.26718 156.804 3.20278 156.804 4.17834V178.999C156.804 179.975 156.416 180.91 155.727 181.6C155.037 182.29 154.101 182.678 153.126 182.678ZM28.7385 0.628839C27.8068 0.630545 26.9138 1.00187 26.2556 1.6613C25.5974 2.32074 25.2277 3.2144 25.2277 4.14613V178.999C25.2277 179.931 25.5974 180.825 26.2556 181.484C26.9138 182.143 27.8068 182.515 28.7385 182.516H153.126C154.058 182.515 154.952 182.144 155.611 181.484C156.27 180.825 156.641 179.932 156.643 178.999V4.14613C156.641 3.21381 156.27 2.32016 155.611 1.66091C154.952 1.00166 154.058 0.630542 153.126 0.628839H28.7385Z" fill="#E0E0E0"/>
<path d="M292.471 182.678H168.077C167.102 182.676 166.168 182.288 165.478 181.598C164.789 180.909 164.401 179.974 164.399 178.999V4.14613C164.409 3.17669 164.801 2.25032 165.489 1.56781C166.178 0.885297 167.108 0.501642 168.077 0.5H292.471C293.439 0.503353 294.366 0.887964 295.052 1.57047C295.738 2.25298 296.128 3.17839 296.136 4.14613V178.999C296.136 179.973 295.75 180.906 295.063 181.596C294.376 182.285 293.444 182.674 292.471 182.678ZM168.077 0.628839C167.145 0.630542 166.251 1.00166 165.592 1.66091C164.933 2.32016 164.562 3.21381 164.56 4.14613V178.999C164.562 179.932 164.933 180.825 165.592 181.484C166.251 182.144 167.145 182.515 168.077 182.516H292.471C293.403 182.515 294.297 182.144 294.956 181.484C295.615 180.825 295.986 179.932 295.988 178.999V4.14613C295.986 3.21381 295.615 2.32016 294.956 1.66091C294.297 1.00166 293.403 0.630542 292.471 0.628839H168.077Z" fill="#E0E0E0"/>
<path d="M40.9461 211.408H58.6614L58.6614 143.729H40.9461L40.9461 211.408Z" fill="#E0E0E0"/>
<path d="M44.3151 211.408H40.9524V201.835H47.8452L44.3151 211.408Z" fill="#EBEBEB"/>
<path d="M142.039 211.408H159.754V143.729H142.039V211.408Z" fill="#E0E0E0"/>
<path d="M40.9458 205.534H144.97V143.73H40.9458L40.9458 205.534Z" fill="#EBEBEB"/>
<path d="M110.68 146.861V193.564H141.517V146.861H110.68Z" fill="#E0E0E0"/>
<path d="M123.048 149.54H129.149C130.46 149.54 131.757 149.274 132.962 148.757C134.167 148.24 135.254 147.482 136.157 146.532H116.039C116.942 147.482 118.029 148.24 119.234 148.757C120.439 149.274 121.737 149.54 123.048 149.54Z" fill="#EBEBEB"/>
<path d="M77.5427 146.861V193.564H108.38V146.861H77.5427Z" fill="#E0E0E0"/>
<path d="M89.6021 149.54H95.7026C97.0127 149.54 98.3091 149.273 99.5129 148.755C100.717 148.238 101.803 147.482 102.705 146.532H82.5933C83.4963 147.482 84.5833 148.24 85.7883 148.757C86.9932 149.274 88.2908 149.54 89.6021 149.54Z" fill="#EBEBEB"/>
<path d="M44.4055 146.867V193.571H75.243V146.867H44.4055Z" fill="#E0E0E0"/>
<path d="M56.4968 149.54H62.5973C63.9086 149.54 65.2062 149.274 66.4111 148.757C67.6161 148.24 68.7031 147.482 69.6061 146.532H49.4558C50.3626 147.486 51.4548 148.246 52.6656 148.763C53.8764 149.28 55.1802 149.545 56.4968 149.54Z" fill="#EBEBEB"/>
<path d="M141.614 211.408H144.977V201.835H138.084L141.614 211.408Z" fill="#EBEBEB"/>
<path d="M183.635 104.144L281.23 104.144V12.7332L183.635 12.7332V104.144Z" fill="#E0E0E0"/>
<path d="M180.13 104.144L279.594 104.144V12.7332L180.13 12.7332V104.144Z" fill="#EBEBEB"/>
<path d="M183.635 110.65L281.23 110.65V104.138L183.635 104.138V110.65Z" fill="#E0E0E0"/>
<path d="M174.294 110.65L273.757 110.65V104.138L174.294 104.138V110.65Z" fill="#EBEBEB"/>
<path d="M274.691 99.235V17.6416L185.039 17.6416V99.235H274.691Z" fill="#F5F5F5"/>
<path d="M265.299 99.235L236.497 17.6416H222.905L251.706 99.235H265.299Z" fill="#FAFAFA"/>
<path d="M272.417 71.554C272.323 71.554 272.233 71.5167 272.167 71.4502C272.1 71.3838 272.063 71.2936 272.063 71.1997V20.8303C272.065 20.7374 272.103 20.649 272.169 20.5839C272.235 20.5188 272.324 20.4824 272.417 20.4824C272.51 20.4824 272.598 20.5191 272.663 20.5843C272.728 20.6495 272.765 20.738 272.765 20.8303V71.1997C272.765 71.2925 272.729 71.3817 272.664 71.448C272.599 71.5142 272.51 71.5523 272.417 71.554Z" fill="#EBEBEB"/>
<path d="M248.782 99.235L219.98 17.6416H214.685L243.48 99.235H248.782Z" fill="#FAFAFA"/>
<path d="M185.657 99.235V17.6416H185.033V99.235H185.657Z" fill="#E0E0E0"/>
<path d="M178.97 23.9165H276.566L277.017 19.5488H179.421L178.97 23.9165Z" fill="#E0E0E0"/>
<path d="M178.97 27.1182H276.566L277.017 22.7441H179.421L178.97 27.1182Z" fill="#E0E0E0"/>
<path d="M178.97 30.9571H276.566L277.017 26.583H179.421L178.97 30.9571Z" fill="#E0E0E0"/>
<path d="M178.97 35.228H276.566L277.017 30.8604H179.421L178.97 35.228Z" fill="#E0E0E0"/>
<path d="M178.97 40.3497H276.566L277.017 35.9756H179.421L178.97 40.3497Z" fill="#E0E0E0"/>
<path d="M178.97 46.102H276.566L277.017 41.7344H179.421L178.97 46.102Z" fill="#E0E0E0"/>
<path d="M177.927 211.408H206.812V150.725H177.927V211.408Z" fill="#E0E0E0"/>
<path d="M180.826 211.409H177.927V203.144H183.873L180.826 211.409Z" fill="#EBEBEB"/>
<path d="M248.981 211.408H277.867V150.725H248.981V211.408Z" fill="#E0E0E0"/>
<path d="M177.927 206.338H251.513V150.725H177.927V206.338Z" fill="#EBEBEB"/>
<path d="M180.175 168.44H249.259V153.186H180.175V168.44Z" fill="#E0E0E0"/>
<path d="M211.457 157.928H217.983C220.817 157.928 223.523 156.047 225.475 152.723H203.958C205.91 156.047 208.622 157.928 211.457 157.928Z" fill="#EBEBEB"/>
<path d="M248.608 211.409H251.513V203.144H245.561L248.608 211.409Z" fill="#EBEBEB"/>
<path d="M180.175 186.156H249.259V170.901H180.175V186.156Z" fill="#E0E0E0"/>
<path d="M211.457 175.643H217.983C220.817 175.643 223.523 173.762 225.475 170.438H203.958C205.91 173.788 208.622 175.643 211.457 175.643Z" fill="#EBEBEB"/>
<path d="M180.175 203.871H249.259V188.617H180.175V203.871Z" fill="#E0E0E0"/>
<path d="M211.457 193.358H217.983C220.817 193.358 223.523 191.477 225.475 188.153H203.958C205.91 191.477 208.622 193.358 211.457 193.358Z" fill="#EBEBEB"/>
<path d="M61.547 100.285H117.63L117.63 25.2754H61.547L61.547 100.285Z" fill="#E0E0E0"/>
<path d="M57.6497 100.285L116.593 100.285L116.593 25.2754L57.6497 25.2754L57.6497 100.285Z" fill="#EBEBEB"/>
<path d="M111.659 95.3506V30.2163L62.5908 30.2163L62.5908 95.3506H111.659Z" fill="#FAFAFA"/>
<path d="M87.9202 75.2262H75.1781C75.0517 75.2262 74.9304 75.176 74.841 75.0866C74.7516 74.9972 74.7014 74.8759 74.7014 74.7495V61.988C74.7116 58.9159 75.9365 55.9724 78.1089 53.8001C80.2813 51.6277 83.2247 50.4028 86.2969 50.3926H99.0325C99.0951 50.3926 99.1571 50.4049 99.215 50.4289C99.2728 50.4528 99.3254 50.4879 99.3696 50.5322C99.4139 50.5765 99.449 50.629 99.473 50.6869C99.4969 50.7447 99.5093 50.8067 99.5093 50.8693V63.605C99.5059 66.6805 98.2848 69.6296 96.1131 71.8073C93.9414 73.985 90.9957 75.2143 87.9202 75.2262ZM75.6806 74.2792H87.9202C90.7496 74.2758 93.462 73.1499 95.462 71.1486C97.4621 69.1474 98.5864 66.4343 98.5881 63.605V51.3653H86.3484C83.5196 51.3687 80.8075 52.4935 78.8066 54.4932C76.8057 56.4929 75.6793 59.2043 75.6741 62.0331L75.6806 74.2792Z" fill="#EBEBEB"/>
<path d="M138.31 113.665H90.066L83.0701 142.158H131.314L138.31 113.665Z" fill="#E0E0E0"/>
<path d="M131.313 142.158L131.12 143.73H82.8762L83.0695 142.158H131.313Z" fill="#E0E0E0"/>
<path d="M136.821 113.665H88.5779L81.5884 142.158H129.832L136.821 113.665Z" fill="#F0F0F0"/>
<path d="M128.807 140.856L135.166 114.966H89.6018L83.2437 140.856H128.807Z" fill="#FAFAFA"/>
<path d="M117.257 142.158L117.064 143.73H63.9373L64.137 142.158H117.257Z" fill="#F0F0F0"/>
<path d="M246.482 145.727H245.716C245.716 144.142 245.716 140.122 245.638 130.91C245.497 114.213 245.232 113.195 245.232 113.195L247.062 120.925C248.228 129.441 246.727 138.016 246.482 145.727Z" fill="#E0E0E0"/>
<path d="M249.896 118.052C253.929 114.065 261.795 113.543 269.834 113.201C272.991 113.066 261.021 119.128 255.018 123.67C250.36 127.193 247.513 128.024 245.967 131.831C245.819 126.891 246.424 121.486 249.896 118.052Z" fill="#E0E0E0"/>
<path d="M245.464 109.368C242.733 104.183 235.859 99.2932 228.148 97.4379C225.121 96.71 235.164 107.023 238.977 113.672C241.947 118.825 245.876 124.906 246.488 129.267C247.41 120.642 248.196 114.573 245.464 109.368Z" fill="#E0E0E0"/>
<path d="M245.819 150.719C247.112 150.719 248.356 150.225 249.296 149.338C250.236 148.45 250.802 147.236 250.876 145.945L251.32 141.365H240.311L240.762 145.945C240.836 147.236 241.401 148.45 242.341 149.338C243.281 150.225 244.526 150.719 245.819 150.719Z" fill="#EBEBEB"/>
<path d="M239.602 143.13H252.035L252.389 138.028H239.241L239.602 143.13Z" fill="#EBEBEB"/>
<path d="M161.5 240.5C230.482 240.5 286.403 237.235 286.403 233.208C286.403 229.18 230.482 225.916 161.5 225.916C92.5186 225.916 36.5979 229.18 36.5979 233.208C36.5979 237.235 92.5186 240.5 161.5 240.5Z" fill="#F5F5F5"/>
<path d="M93.2804 95.4219H62.3398V233.092H93.2804V95.4219Z" fill="#26A37E"/>
<path opacity="0.7" d="M93.2804 95.4219H62.3398V233.092H93.2804V95.4219Z" fill="#FAFAFA"/>
<path d="M140.615 49.9155H109.675V233.085H140.615V49.9155Z" fill="#26A37E"/>
<path opacity="0.1" d="M140.615 49.9155H109.675V233.085H140.615V49.9155Z" fill="black"/>
<path d="M187.957 95.4219H157.017V233.092H187.957V95.4219Z" fill="#26A37E"/>
<path opacity="0.4" d="M187.957 95.4219H157.017V233.092H187.957V95.4219Z" fill="black"/>
<path d="M82.3033 95.4219H51.3628V233.092H82.3033V95.4219Z" fill="#26A37E"/>
<path opacity="0.8" d="M82.3033 95.4219H51.3628V233.092H82.3033V95.4219Z" fill="#FAFAFA"/>
<path d="M129.645 49.9155H98.7046V233.085H129.645V49.9155Z" fill="#26A37E"/>
<path opacity="0.2" d="M129.645 49.9155H98.7046V233.085H129.645V49.9155Z" fill="#FAFAFA"/>
<path d="M176.98 95.4219H146.04V233.092H176.98V95.4219Z" fill="#26A37E"/>
<path opacity="0.2" d="M176.98 95.4219H146.04V233.092H176.98V95.4219Z" fill="black"/>
<path d="M292.709 169.922H292.065C292.049 158.047 288.778 146.403 282.608 136.256L283.162 135.922C289.391 146.17 292.693 157.929 292.709 169.922ZM279.027 130.987C277.209 128.583 275.224 126.31 273.087 124.184L273.545 123.733C275.705 125.885 277.709 128.189 279.542 130.626L279.027 130.987Z" fill="#26A37E"/>
<path opacity="0.3" d="M292.709 169.922H292.065C292.049 158.047 288.778 146.403 282.608 136.256L283.162 135.922C289.391 146.17 292.693 157.929 292.709 169.922ZM279.027 130.987C277.209 128.583 275.224 126.31 273.087 124.184L273.545 123.733C275.705 125.885 277.709 128.189 279.542 130.626L279.027 130.987Z" fill="black"/>
<path d="M271.953 125.293C260.11 113.454 244.051 106.8 227.304 106.792H218.189V107.468C210.286 108.622 202.672 111.262 195.752 115.25C165.745 132.56 155.303 171.501 172.613 201.488C177.38 209.751 183.957 216.825 191.851 222.181C199.745 227.537 208.75 231.034 218.189 232.409V233.054H227.317C239.809 233.06 252.021 229.36 262.409 222.423C272.796 215.485 280.893 205.622 285.673 194.082C290.453 182.541 291.702 169.842 289.262 157.592C286.823 145.341 280.803 134.089 271.966 125.261L271.953 125.293ZM227.304 216.614C218.073 216.615 209.048 213.879 201.371 208.751C193.694 203.623 187.71 196.335 184.176 187.806C180.642 179.278 179.716 169.893 181.515 160.838C183.314 151.783 187.758 143.465 194.285 136.936C200.811 130.407 209.127 125.96 218.181 124.156C227.235 122.353 236.621 123.276 245.151 126.806C253.68 130.337 260.972 136.318 266.103 143.993C271.234 151.667 273.974 160.691 273.976 169.923C273.992 176.057 272.796 182.134 270.457 187.805C268.117 193.476 264.68 198.629 260.343 202.968C256.007 207.306 250.855 210.745 245.185 213.087C239.516 215.429 233.439 216.627 227.304 216.614Z" fill="#26A37E"/>
<path opacity="0.3" d="M271.953 125.293C260.11 113.454 244.051 106.8 227.304 106.792H218.189V107.468C210.286 108.622 202.672 111.262 195.752 115.25C165.745 132.56 155.303 171.501 172.613 201.488C177.38 209.751 183.957 216.825 191.851 222.181C199.745 227.537 208.75 231.034 218.189 232.409V233.054H227.317C239.809 233.06 252.021 229.36 262.409 222.423C272.796 215.485 280.893 205.622 285.673 194.082C290.453 182.541 291.702 169.842 289.262 157.592C286.823 145.341 280.803 134.089 271.966 125.261L271.953 125.293ZM227.304 216.614C218.073 216.615 209.048 213.879 201.371 208.751C193.694 203.623 187.71 196.335 184.176 187.806C180.642 179.278 179.716 169.893 181.515 160.838C183.314 151.783 187.758 143.465 194.285 136.936C200.811 130.407 209.127 125.96 218.181 124.156C227.235 122.353 236.621 123.276 245.151 126.806C253.68 130.337 260.972 136.318 266.103 143.993C271.234 151.667 273.974 160.691 273.976 169.923C273.992 176.057 272.796 182.134 270.457 187.805C268.117 193.476 264.68 198.629 260.343 202.968C256.007 207.306 250.855 210.745 245.185 213.087C239.516 215.429 233.439 216.627 227.304 216.614Z" fill="black"/>
<path d="M264.848 169.922H281.32C281.332 183.83 276.751 197.352 268.29 208.389C259.828 219.426 247.958 227.36 234.524 230.959C221.09 234.557 206.844 233.619 193.998 228.29C181.152 222.961 170.426 213.539 163.484 201.488L177.759 193.249C182.893 202.149 190.821 209.107 200.313 213.041C209.805 216.976 220.331 217.668 230.256 215.009C240.181 212.351 248.952 206.491 255.206 198.338C261.461 190.186 264.85 180.198 264.848 169.922Z" fill="#26A37E"/>
<path opacity="0.2" d="M264.848 169.922H281.32C281.332 183.83 276.751 197.352 268.29 208.389C259.828 219.426 247.958 227.36 234.524 230.959C221.09 234.557 206.844 233.619 193.998 228.29C181.152 222.961 170.426 213.539 163.484 201.488L177.759 193.249C182.893 202.149 190.821 209.107 200.313 213.041C209.805 216.976 220.331 217.668 230.256 215.009C240.181 212.351 248.952 206.491 255.206 198.338C261.461 190.186 264.85 180.198 264.848 169.922Z" fill="#FAFAFA"/>
<path d="M218.189 106.792C234.929 106.802 250.981 113.457 262.818 125.294C274.655 137.131 281.31 153.183 281.32 169.923H264.848C264.841 157.55 259.923 145.686 251.174 136.938C242.426 128.189 230.562 123.271 218.189 123.264V106.792Z" fill="#26A37E"/>
<path d="M218.189 106.792V123.264C209.997 123.261 201.948 125.416 194.852 129.511C187.757 133.606 181.864 139.497 177.768 146.592C173.671 153.687 171.515 161.735 171.516 169.928C171.517 178.12 173.675 186.168 177.773 193.262L163.484 201.488C146.175 171.488 156.611 132.56 186.611 115.237C196.215 109.703 207.105 106.79 218.189 106.792Z" fill="#26A37E"/>
<path opacity="0.8" d="M218.189 106.792V123.264C209.997 123.261 201.948 125.416 194.852 129.511C187.757 133.606 181.864 139.497 177.768 146.592C173.671 153.687 171.515 161.735 171.516 169.928C171.517 178.12 173.675 186.168 177.773 193.262L163.484 201.488C146.175 171.488 156.611 132.56 186.611 115.237C196.215 109.703 207.105 106.79 218.189 106.792Z" fill="#FAFAFA"/>
<path d="M202.709 150.873L197.646 153.837L190.012 142.57L195.076 139.606L202.709 150.873Z" fill="#B5715A"/>
<path d="M194.831 150.635L200.384 147.099C200.478 147.035 200.593 147.008 200.706 147.024C200.819 147.039 200.922 147.096 200.996 147.182L204.429 151.176C204.511 151.28 204.571 151.4 204.604 151.528C204.637 151.656 204.642 151.79 204.621 151.92C204.599 152.051 204.55 152.175 204.477 152.286C204.404 152.396 204.309 152.49 204.197 152.561C202.265 153.76 201.234 154.243 198.793 155.782C197.285 156.736 194.283 158.874 192.202 160.202C190.122 161.529 188.711 159.557 189.458 158.804C192.802 155.499 193.594 153.38 194.199 151.447C194.311 151.112 194.534 150.826 194.831 150.635Z" fill="#263238"/>
<path d="M192.286 153.115H192.138C192.02 153.095 191.908 153.046 191.813 152.973C191.717 152.9 191.641 152.805 191.59 152.697C191.555 152.636 191.537 152.567 191.537 152.497C191.537 152.427 191.555 152.358 191.59 152.297C191.977 151.595 194.566 151.35 194.863 151.325C194.883 151.322 194.904 151.326 194.921 151.337C194.939 151.347 194.952 151.363 194.959 151.383C194.971 151.398 194.978 151.417 194.978 151.437C194.978 151.457 194.971 151.476 194.959 151.492C194.289 152.11 193.11 153.115 192.286 153.115ZM194.592 151.544C193.69 151.647 192.015 151.924 191.764 152.387C191.745 152.42 191.735 152.456 191.735 152.494C191.735 152.531 191.745 152.568 191.764 152.6C191.8 152.682 191.856 152.753 191.927 152.807C191.998 152.861 192.082 152.896 192.17 152.909C192.666 152.993 193.561 152.484 194.592 151.544Z" fill="#26A37E"/>
<path d="M194.541 151.537C193.684 151.537 192.286 151.228 192.061 150.706C192.003 150.571 191.99 150.364 192.273 150.145C192.376 150.061 192.496 149.999 192.625 149.963C192.754 149.928 192.889 149.919 193.021 149.939C193.955 150.062 194.908 151.305 194.953 151.357C194.962 151.371 194.967 151.388 194.967 151.405C194.967 151.422 194.962 151.439 194.953 151.453C194.948 151.469 194.939 151.482 194.926 151.493C194.914 151.503 194.898 151.509 194.882 151.511C194.769 151.53 194.655 151.538 194.541 151.537ZM192.879 150.126C192.702 150.126 192.531 150.187 192.396 150.3C192.17 150.474 192.222 150.59 192.241 150.629C192.415 151.034 193.832 151.389 194.683 151.337C194.259 150.77 193.669 150.349 192.995 150.133L192.879 150.126Z" fill="#26A37E"/>
<path d="M216.649 63.3083C216.553 63.8172 216.476 64.1779 216.379 64.5966L216.076 65.7884C215.864 66.5808 215.638 67.3538 215.432 68.1268C214.942 69.6664 214.401 71.1738 213.828 72.6362C213.255 74.0985 212.623 75.5994 211.973 77.0489C211.651 77.7768 211.328 78.4919 210.955 79.2069L210.691 79.748L210.543 80.0444C210.472 80.1925 210.394 80.3407 210.311 80.4824C209.998 81.0138 209.62 81.503 209.183 81.9383C208.427 82.6755 207.557 83.2866 206.607 83.7485C205.777 84.1548 204.915 84.491 204.03 84.7534C202.407 85.2246 200.744 85.548 199.063 85.7197C195.851 86.0538 192.612 86.0538 189.4 85.7197L189.452 82.692C190.92 82.5309 192.454 82.3635 193.961 82.1122C195.468 81.861 196.918 81.6098 198.348 81.2748C199.733 80.9541 201.09 80.5232 202.406 79.9864C203.485 79.6118 204.464 78.9947 205.267 78.1826C205.371 78.0612 205.456 77.9243 205.518 77.7768L205.846 76.9329C206.13 76.2307 206.394 75.5221 206.658 74.8135C207.199 73.4027 207.689 71.9726 208.185 70.5554C208.681 69.1382 209.132 67.7016 209.544 66.2715C209.763 65.5565 209.969 64.8479 210.188 64.1393L210.465 63.0763L210.704 62.0972L216.649 63.3083Z" fill="#B5715A"/>
<path d="M212.559 55.7783C210.143 56.4225 208.449 66.3366 208.449 66.3366L215.11 70.8459C215.11 70.8459 221.494 60.8159 219.619 58.1618C217.7 55.4111 216.083 54.8829 212.559 55.7783Z" fill="#26A37E"/>
<path opacity="0.6" d="M212.559 55.7783C210.143 56.4225 208.449 66.3366 208.449 66.3366L215.11 70.8459C215.11 70.8459 221.494 60.8159 219.619 58.1618C217.7 55.4111 216.083 54.8829 212.559 55.7783Z" fill="#FAFAFA"/>
<path d="M212.34 59.3916L217.493 60.5898L217.989 65.6467C217.112 67.4341 216.145 69.1757 215.091 70.8647L211.103 68.1397C211.245 65.7949 211.683 60.9634 212.34 59.3916Z" fill="#26A37E"/>
<path opacity="0.3" d="M212.34 59.3916L217.493 60.5898L217.989 65.6467C217.112 67.4341 216.145 69.1757 215.091 70.8647L211.103 68.1397C211.245 65.7949 211.683 60.9634 212.34 59.3916Z" fill="#FAFAFA"/>
<path d="M190.302 82.6861L186.147 78.4473L185.599 84.3867C185.599 84.3867 188.717 86.4932 190.875 85.3594L190.302 82.6861Z" fill="#B5715A"/>
<path d="M181.257 77.8413L181.064 82.8402L185.599 84.4121L186.14 78.4726L181.257 77.8413Z" fill="#B5715A"/>
<path d="M179.982 152.478L175.821 148.349L184.034 137.378L188.196 141.501L179.982 152.478Z" fill="#B5715A"/>
<path d="M178.153 145.443L184.157 148.161C184.261 148.205 184.346 148.285 184.393 148.388C184.441 148.491 184.449 148.608 184.414 148.715L182.952 153.772C182.91 153.898 182.843 154.014 182.753 154.112C182.664 154.211 182.555 154.289 182.434 154.343C182.312 154.396 182.181 154.423 182.048 154.423C181.916 154.422 181.784 154.394 181.663 154.339C179.589 153.354 178.636 152.774 175.995 151.582C174.371 150.848 170.132 149.128 167.891 148.116C165.649 147.105 166.531 144.831 167.556 145.05C172.155 146.048 175.17 145.913 177.115 145.366C177.46 145.271 177.826 145.298 178.153 145.443Z" fill="#263238"/>
<path d="M190.018 142.57L193.954 148.381L199.018 145.417L195.082 139.613L190.018 142.57Z" fill="#9C614C"/>
<path d="M188.195 141.501L184.028 137.378L179.795 143.034L183.963 147.163L188.195 141.501Z" fill="#9C614C"/>
<path d="M239.17 91.1699H215.335C209.737 56.7636 212.533 55.7845 212.533 55.7845C212.533 55.7845 216.366 54.9986 220.379 54.4961C221.068 54.4123 221.758 54.335 222.441 54.2706C226.041 54.0127 229.656 54.0127 233.257 54.2706C233.939 54.3028 234.622 54.3544 235.292 54.4123C238.003 54.6579 240.698 55.0558 243.364 55.6041C238.758 75.5032 238.803 81.4749 239.17 91.1699Z" fill="#26A37E"/>
<path opacity="0.6" d="M239.17 91.1699H215.335C209.737 56.7636 212.533 55.7845 212.533 55.7845C212.533 55.7845 216.366 54.9986 220.379 54.4961C221.068 54.4123 221.758 54.335 222.441 54.2706C226.041 54.0127 229.656 54.0127 233.257 54.2706C233.939 54.3028 234.622 54.3544 235.292 54.4123C238.003 54.6579 240.698 55.0558 243.364 55.6041C238.758 75.5032 238.803 81.4749 239.17 91.1699Z" fill="#FAFAFA"/>
<path d="M235.318 54.4189L235.06 55.0244C234.925 55.3594 231.608 63.1541 225.178 68.3592L223.607 69.6476L222.402 68.0178C218.788 63.1219 219.87 56.7573 220.405 54.522C221.094 54.4382 221.784 54.3609 222.466 54.2965C226.067 54.0385 229.682 54.0385 233.282 54.2965C233.965 54.3094 234.648 54.3609 235.318 54.4189Z" fill="#26A37E"/>
<path opacity="0.1" d="M235.318 54.4189L235.06 55.0244C234.925 55.3594 231.608 63.1541 225.178 68.3592L223.607 69.6476L222.402 68.0178C218.788 63.1219 219.87 56.7573 220.405 54.522C221.094 54.4382 221.784 54.3609 222.466 54.2965C226.067 54.0385 229.682 54.0385 233.282 54.2965C233.965 54.3094 234.648 54.3609 235.318 54.4189Z" fill="#FAFAFA"/>
<path d="M221.3 24.6186C216.095 22.2931 212.964 31.1378 213.319 37.3994C213.673 43.6609 214.607 51.3397 211.863 50.0513C209.119 48.7629 211.064 46.8304 211.064 46.8304C211.064 46.8304 207.199 49.8903 211.586 51.5716C215.973 53.253 223.774 53.0919 228.335 50.9274C230.944 46.9914 229.823 32.2781 229.823 32.2781L221.3 24.6186Z" fill="#263238"/>
<path d="M232.207 42.1021C231.53 45.5807 230.847 51.9582 233.282 54.2773C233.282 54.2773 230.061 61.8981 223.961 66.8519C220.134 61.6662 222.466 54.2773 222.466 54.2773C226.332 53.3496 226.248 50.4701 225.571 47.7709L232.207 42.1021Z" fill="#B5715A"/>
<path d="M229.501 44.4146L225.572 47.7643C225.742 48.3969 225.854 49.0438 225.907 49.6969C227.388 49.4843 229.424 47.8545 229.585 46.302C229.673 45.6731 229.645 45.0332 229.501 44.4146Z" fill="#9C614C"/>
<path d="M232.619 32.935C233.263 38.7328 233.695 41.1485 231.33 44.5949C227.775 49.7871 220.527 49.3491 218.144 43.8863C215.999 38.9711 215.258 30.3583 220.45 27.0664C221.591 26.3371 222.899 25.9118 224.251 25.831C225.603 25.7502 226.953 26.0166 228.172 26.6048C229.392 27.193 230.441 28.0834 231.219 29.1914C231.997 30.2995 232.479 31.5882 232.619 32.935Z" fill="#B5715A"/>
<path d="M221.094 28.9542C223.175 31.3957 229.469 38.5011 233.862 37.5799C238.372 36.6329 238.526 28.2391 233.089 24.7669C227.652 21.2947 215.509 22.4027 221.094 28.9542Z" fill="#263238"/>
<path d="M234.126 18.7626C229.984 17.3905 229.617 21.436 229.939 23.9548L235.028 27.6976C236.654 27.441 238.229 26.9255 239.692 26.1709C241.689 25.0306 238.268 20.1348 234.126 18.7626Z" fill="#263238"/>
<path d="M235.061 37.9013C234.941 39.0159 234.405 40.0443 233.56 40.7809C232.426 41.7407 231.299 40.8904 231.137 39.4925C230.996 38.2427 231.414 36.2715 232.78 35.8141C234.146 35.3568 235.189 36.5356 235.061 37.9013Z" fill="#B5715A"/>
<path d="M192.106 116.454C191.932 121.685 193.529 128.05 195.282 133.358C195.655 134.492 196.035 135.581 196.409 136.579C198.006 140.934 199.437 143.968 199.437 143.968L192.421 147.962C192.421 147.962 191.468 146.764 190.064 144.657C189.419 143.73 188.737 142.615 187.983 141.352C184.053 134.782 178.913 124.043 178.668 112.615C178.281 94.7323 215.348 91.1699 215.348 91.1699H232.877L227.968 105.117C227.968 105.117 192.421 106.94 192.106 116.454Z" fill="#26A37E"/>
<path opacity="0.6" d="M192.106 116.454C191.932 121.685 193.529 128.05 195.282 133.358C195.655 134.492 196.035 135.581 196.409 136.579C198.006 140.934 199.437 143.968 199.437 143.968L192.421 147.962C192.421 147.962 191.468 146.764 190.064 144.657C189.419 143.73 188.737 142.615 187.983 141.352C184.053 134.782 178.913 124.043 178.668 112.615C178.281 94.7323 215.348 91.1699 215.348 91.1699H232.877L227.968 105.117C227.968 105.117 192.421 106.94 192.106 116.454Z" fill="black"/>
<path d="M196.409 136.611C195.494 138.132 193.021 142.003 190.077 144.657C189.432 143.73 188.75 142.615 187.996 141.353L195.282 133.377C195.642 134.492 196.035 135.6 196.409 136.611Z" fill="#263238"/>
<path d="M202.445 101.638L201.698 109.239C196.544 110.863 192.525 113.104 192.132 116.106C191.256 109.368 195.945 105.413 202.445 101.638Z" fill="#263238"/>
<path d="M221.648 91.1636C221.648 91.1636 199.707 100.118 196.364 110.013C192.099 122.639 180.504 140.483 180.504 140.483L185.374 146.822C185.374 146.822 198.76 133.848 207.882 118.993C219.31 100.311 246.843 120.043 239.203 91.1636H221.648Z" fill="#26A37E"/>
<path opacity="0.6" d="M221.648 91.1636C221.648 91.1636 199.707 100.118 196.364 110.013C192.099 122.639 180.504 140.483 180.504 140.483L185.374 146.822C185.374 146.822 198.76 133.848 207.882 118.993C219.31 100.311 246.843 120.043 239.203 91.1636H221.648Z" fill="black"/>
<path d="M224.232 36.0852C224.315 36.549 224.135 36.9742 223.832 37.0257C223.529 37.0773 223.188 36.7487 223.13 36.2785C223.072 35.8082 223.227 35.3959 223.529 35.338C223.832 35.28 224.148 35.6214 224.232 36.0852Z" fill="#263238"/>
<path d="M218.968 37.0255C219.052 37.4893 218.872 37.9145 218.569 37.966C218.266 38.0175 217.925 37.689 217.867 37.2252C217.809 36.7613 217.963 36.3362 218.266 36.2782C218.569 36.2202 218.885 36.5745 218.968 37.0255Z" fill="#263238"/>
<path d="M218.408 36.2845L217.229 36.1621C217.229 36.1621 217.963 36.9287 218.408 36.2845Z" fill="#263238"/>
<path d="M220.502 37.5796C220.277 38.7148 219.898 39.8137 219.374 40.8456C219.644 40.9707 219.937 41.0356 220.234 41.0356C220.531 41.0356 220.825 40.9707 221.094 40.8456L220.502 37.5796Z" fill="#884C3B"/>
<path d="M223.774 42.0696C223.756 42.0687 223.739 42.0628 223.724 42.0526C223.709 42.0423 223.698 42.0281 223.69 42.0116C223.682 41.9894 223.683 41.9648 223.692 41.9431C223.702 41.9214 223.72 41.9043 223.742 41.8957C224.623 41.4678 225.313 40.7255 225.675 39.8149C225.678 39.8042 225.684 39.7943 225.691 39.7859C225.699 39.7774 225.708 39.7706 225.718 39.7658C225.728 39.761 225.74 39.7583 225.751 39.7579C225.762 39.7575 225.773 39.7593 225.784 39.7634C225.806 39.7721 225.825 39.7888 225.835 39.8102C225.846 39.8316 225.848 39.8563 225.842 39.8794C225.459 40.8419 224.725 41.6227 223.787 42.0632L223.774 42.0696Z" fill="#263238"/>
<path d="M224.818 33.9983C224.773 33.9991 224.729 33.983 224.695 33.9532C224.432 33.7049 224.115 33.5214 223.768 33.4173C223.421 33.3133 223.055 33.2917 222.698 33.3541C222.676 33.361 222.652 33.3632 222.629 33.3607C222.606 33.3582 222.583 33.351 222.563 33.3396C222.542 33.3282 222.524 33.3127 222.51 33.2942C222.496 33.2757 222.485 33.2544 222.479 33.2317C222.467 33.1865 222.473 33.1383 222.496 33.0975C222.519 33.0566 222.557 33.0262 222.602 33.0127C223.017 32.9249 223.447 32.9376 223.856 33.0496C224.265 33.1617 224.641 33.3699 224.953 33.6569C224.986 33.6906 225.004 33.7356 225.004 33.7825C225.004 33.8294 224.986 33.8745 224.953 33.9081C224.94 33.9331 224.92 33.9543 224.897 33.97C224.873 33.9857 224.846 33.9955 224.818 33.9983Z" fill="#263238"/>
<path d="M216.096 34.9319H216.031C215.988 34.9121 215.953 34.8764 215.935 34.832C215.917 34.7877 215.917 34.7381 215.935 34.6936C216.095 34.3006 216.347 33.9517 216.67 33.676C216.993 33.4003 217.377 33.2058 217.79 33.1088C217.836 33.1012 217.883 33.1121 217.921 33.1393C217.959 33.1665 217.985 33.2077 217.993 33.2538C218 33.2999 217.989 33.3472 217.962 33.3853C217.935 33.4233 217.894 33.449 217.848 33.4567C217.494 33.5456 217.166 33.7168 216.89 33.9563C216.615 34.1958 216.4 34.497 216.263 34.8353C216.247 34.8656 216.223 34.8908 216.193 34.9079C216.164 34.925 216.13 34.9334 216.096 34.9319Z" fill="#263238"/>
<path d="M177.424 145.927C176.664 145.778 175.35 145.431 175.06 144.761C175.013 144.641 174.997 144.511 175.014 144.384C175.031 144.257 175.08 144.136 175.157 144.033C175.193 143.965 175.247 143.908 175.313 143.868C175.378 143.829 175.454 143.807 175.53 143.807C176.258 143.807 177.399 145.572 177.521 145.778C177.532 145.793 177.537 145.811 177.537 145.83C177.537 145.848 177.532 145.866 177.521 145.881C177.51 145.897 177.495 145.909 177.479 145.917C177.462 145.924 177.443 145.928 177.424 145.927ZM175.492 143.994C175.448 143.994 175.405 144.007 175.368 144.029C175.331 144.052 175.3 144.084 175.279 144.123C175.222 144.2 175.185 144.291 175.171 144.387C175.158 144.482 175.168 144.58 175.202 144.67C175.376 145.063 176.11 145.431 177.192 145.669C176.78 145.07 175.962 143.994 175.492 143.994Z" fill="#26A37E"/>
<path d="M177.425 145.926C177.41 145.926 177.395 145.922 177.382 145.915C177.368 145.909 177.357 145.899 177.347 145.888C176.929 145.314 176.555 143.781 176.916 143.272C176.975 143.189 177.062 143.13 177.161 143.104C177.26 143.078 177.364 143.087 177.457 143.13C177.554 143.157 177.644 143.205 177.719 143.272C177.794 143.34 177.852 143.423 177.888 143.517C178.23 144.277 177.547 145.804 177.515 145.868C177.508 145.883 177.497 145.897 177.483 145.907C177.47 145.917 177.454 145.924 177.438 145.926H177.425ZM177.257 143.291C177.22 143.29 177.184 143.298 177.151 143.315C177.118 143.332 177.09 143.357 177.07 143.388C176.8 143.768 177.07 145.018 177.412 145.617C177.573 145.198 177.953 144.142 177.708 143.601C177.681 143.532 177.638 143.471 177.584 143.422C177.529 143.373 177.463 143.337 177.392 143.317C177.349 143.3 177.303 143.292 177.257 143.291Z" fill="#26A37E"/>
<path d="M223.671 35.3441L222.492 35.2217C222.492 35.2217 223.227 35.9883 223.671 35.3441Z" fill="#263238"/>
<path d="M239.531 89.7723L239.718 91.8982C239.802 92.0656 239.609 92.2331 239.332 92.2331H215.239C215.026 92.2331 214.846 92.1301 214.833 91.9948L214.62 89.8625C214.62 89.7143 214.794 89.5919 215.026 89.5919H239.138C239.214 89.5854 239.29 89.5987 239.359 89.6303C239.427 89.6619 239.487 89.7108 239.531 89.7723Z" fill="#26A37E"/>
<path opacity="0.2" d="M239.531 89.7723L239.718 91.8982C239.802 92.0656 239.609 92.2331 239.332 92.2331H215.239C215.026 92.2331 214.846 92.1301 214.833 91.9948L214.62 89.8625C214.62 89.7143 214.794 89.5919 215.026 89.5919H239.138C239.214 89.5854 239.29 89.5987 239.359 89.6303C239.427 89.6619 239.487 89.7108 239.531 89.7723Z" fill="#FAFAFA"/>
<path d="M236.291 92.4648H236.935C237.064 92.4648 237.161 92.4004 237.154 92.3166L236.851 89.5466C236.851 89.4693 236.729 89.3984 236.6 89.3984H235.956C235.827 89.3984 235.73 89.4693 235.737 89.5466L236.04 92.3166C236.046 92.4004 236.162 92.4648 236.291 92.4648Z" fill="#26A37E"/>
<path opacity="0.6" d="M236.291 92.4648H236.935C237.064 92.4648 237.161 92.4004 237.154 92.3166L236.851 89.5466C236.851 89.4693 236.729 89.3984 236.6 89.3984H235.956C235.827 89.3984 235.73 89.4693 235.737 89.5466L236.04 92.3166C236.046 92.4004 236.162 92.4648 236.291 92.4648Z" fill="black"/>
<path d="M217.055 92.4648H217.699C217.828 92.4648 217.931 92.4004 217.918 92.3166L217.616 89.5466C217.616 89.4693 217.493 89.3984 217.364 89.3984H216.72C216.591 89.3984 216.495 89.4693 216.501 89.5466L216.804 92.3166C216.817 92.4004 216.901 92.4648 217.055 92.4648Z" fill="#26A37E"/>
<path opacity="0.6" d="M217.055 92.4648H217.699C217.828 92.4648 217.931 92.4004 217.918 92.3166L217.616 89.5466C217.616 89.4693 217.493 89.3984 217.364 89.3984H216.72C216.591 89.3984 216.495 89.4693 216.501 89.5466L216.804 92.3166C216.817 92.4004 216.901 92.4648 217.055 92.4648Z" fill="black"/>
<path d="M226.673 92.4648H227.317C227.446 92.4648 227.543 92.4004 227.536 92.3166L227.233 89.5466C227.233 89.4693 227.111 89.3984 226.982 89.3984H226.338C226.209 89.3984 226.113 89.4693 226.119 89.5466L226.422 92.3166C226.435 92.4004 226.563 92.4648 226.673 92.4648Z" fill="#26A37E"/>
<path opacity="0.6" d="M226.673 92.4648H227.317C227.446 92.4648 227.543 92.4004 227.536 92.3166L227.233 89.5466C227.233 89.4693 227.111 89.3984 226.982 89.3984H226.338C226.209 89.3984 226.113 89.4693 226.119 89.5466L226.422 92.3166C226.435 92.4004 226.563 92.4648 226.673 92.4648Z" fill="black"/>
<path d="M237.792 64.8418L240.865 67.4572C240.22 70.9359 239.769 73.8347 239.486 76.4115C238.913 73.8283 237.45 66.8517 237.792 64.8418Z" fill="#26A37E"/>
<path opacity="0.3" d="M237.792 64.8418L240.865 67.4572C240.22 70.9359 239.769 73.8347 239.486 76.4115C238.913 73.8283 237.45 66.8517 237.792 64.8418Z" fill="#FAFAFA"/>
<path d="M172.69 74.7109H214.485L220.541 99.3835H178.752L172.69 74.7109Z" fill="#FAFAFA"/>
<path d="M193.865 94.7905L219.426 100.749L235.827 96.1562L235.66 94.7905H193.865Z" fill="#FAFAFA"/>
<path d="M171.408 74.7109H213.197L219.252 99.3835H177.463L171.408 74.7109Z" fill="#26A37E"/>
<path opacity="0.2" d="M171.408 74.7109H213.197L219.252 99.3835H177.463L171.408 74.7109Z" fill="#FAFAFA"/>
<path d="M177.463 99.3833L177.631 100.749H219.426L219.252 99.3833H177.463Z" fill="#26A37E"/>
<path opacity="0.2" d="M177.463 99.3833L177.631 100.749H219.426L219.252 99.3833H177.463Z" fill="#FAFAFA"/>
<path d="M245.638 62.1558C246.822 65.616 247.824 69.136 248.64 72.7012C249.065 74.492 249.419 76.3022 249.69 78.1833C249.825 79.1238 249.935 80.0836 249.993 81.0886C249.993 81.591 250.031 82.1064 249.993 82.6475V83.0662V83.2917L249.96 83.6009C249.913 84.0012 249.826 84.396 249.703 84.7798C249.264 86.04 248.515 87.1696 247.525 88.0652C246.736 88.7967 245.872 89.4444 244.949 89.9977C243.288 90.9841 241.539 91.8143 239.724 92.4779C237.966 93.1221 236.194 93.6696 234.423 94.1528C232.651 94.6359 230.879 95.0096 229.031 95.3059L228.303 92.3619C229.92 91.7693 231.588 91.1444 233.186 90.4294C234.783 89.7143 236.407 89.0572 237.901 88.2777C239.378 87.5503 240.794 86.7037 242.134 85.7461C242.718 85.3279 243.257 84.8508 243.744 84.3224C244.07 83.9934 244.313 83.5915 244.453 83.15C244.456 82.6048 244.419 82.06 244.343 81.5202C244.246 80.7407 244.105 79.929 243.95 79.1045C243.622 77.4618 243.196 75.7869 242.771 74.1055C242.346 72.4242 241.837 70.7428 241.335 69.0679C240.832 67.393 240.317 65.6924 239.814 64.0561L245.638 62.1558Z" fill="#B5715A"/>
<path d="M243.39 55.6107C245.78 56.3322 249.433 65.6987 249.433 65.6987L240.176 72.3146C240.176 72.3146 236.014 64.3073 237.013 61.228C238.056 58.0135 240.672 54.7797 243.39 55.6107Z" fill="#26A37E"/>
<path opacity="0.6" d="M243.39 55.6107C245.78 56.3322 249.433 65.6987 249.433 65.6987L240.176 72.3146C240.176 72.3146 236.014 64.3073 237.013 61.228C238.056 58.0135 240.672 54.7797 243.39 55.6107Z" fill="#FAFAFA"/>
<path d="M229.52 92.5743L223.987 91.1636L226.634 96.5104C226.634 96.5104 230.396 96.6714 231.64 94.5778L229.52 92.5743Z" fill="#B5715A"/>
<path d="M219.471 93.1991L221.925 97.5474L226.609 96.5103L223.961 91.1699L219.471 93.1991Z" fill="#B5715A"/>
</svg>
