<svg width="23" height="23" viewBox="0 0 23 23" fill="none" xmlns="http://www.w3.org/2000/svg">
<path d="M21.5 4.99994V18.4999C21.5 20.1569 17.023 21.4999 11.5 21.4999C5.977 21.4999 1.5 20.1569 1.5 18.4999V4.99994" stroke="#188366" stroke-width="1.5" stroke-linecap="round" stroke-linejoin="round"/>
<path d="M21.5 13.9999C21.5 15.6569 17.023 16.9999 11.5 16.9999C5.977 16.9999 1.5 15.6569 1.5 13.9999M21.5 9.49994C21.5 11.1569 17.023 12.4999 11.5 12.4999C5.977 12.4999 1.5 11.1569 1.5 9.49994" stroke="#188366" stroke-width="1.5" stroke-linecap="round" stroke-linejoin="round"/>
<path d="M11.5 7.5C17.0228 7.5 21.5 6.15685 21.5 4.5C21.5 2.84315 17.0228 1.5 11.5 1.5C5.97715 1.5 1.5 2.84315 1.5 4.5C1.5 6.15685 5.97715 7.5 11.5 7.5Z" stroke="#188366" stroke-width="1.5" stroke-linecap="round" stroke-linejoin="round"/>
</svg>
