<svg width="25" height="25" viewBox="0 0 25 25" fill="none" xmlns="http://www.w3.org/2000/svg">
<path d="M19.818 14.0001H15.943C15.4293 13.9995 14.9364 14.2027 14.5724 14.5651C14.2083 14.9275 14.0029 15.4194 14.001 15.9331V19.8081C14.0007 20.0632 14.0508 20.3158 14.1483 20.5515C14.2458 20.7873 14.3888 21.0015 14.5692 21.1819C14.7496 21.3622 14.9638 21.5053 15.1995 21.6028C15.4353 21.7003 15.6879 21.7503 15.943 21.7501H19.818C20.3315 21.7479 20.8232 21.5423 21.1853 21.1783C21.5475 20.8143 21.7505 20.3215 21.75 19.8081V15.9331C21.7503 15.6793 21.7005 15.4279 21.6035 15.1934C21.5065 14.9589 21.3642 14.7458 21.1847 14.5663C21.0053 14.3869 20.7922 14.2446 20.5577 14.1476C20.3231 14.0506 20.0718 14.0008 19.818 14.0011M9.057 14.0001H5.182C4.66859 14.003 4.17721 14.209 3.8152 14.573C3.45319 14.9371 3.24999 15.4296 3.25 15.9431V19.8181C3.24974 20.0719 3.29953 20.3232 3.39653 20.5577C3.49353 20.7922 3.63583 21.0053 3.81528 21.1848C3.99474 21.3642 4.20783 21.5065 4.44235 21.6035C4.67687 21.7005 4.92821 21.7503 5.182 21.7501H9.057C9.57048 21.7506 10.0632 21.5475 10.4273 21.1854C10.7913 20.8232 10.9969 20.3315 10.999 19.8181V15.9431C10.9993 15.688 10.9492 15.4353 10.8517 15.1996C10.7542 14.9638 10.6112 14.7497 10.4308 14.5693C10.2504 14.3889 10.0362 14.2459 9.80048 14.1484C9.56475 14.0509 9.3121 14.0008 9.057 14.0011M9.057 3.25006H5.182C4.92821 3.2498 4.67687 3.29959 4.44235 3.39659C4.20783 3.49359 3.99474 3.63589 3.81528 3.81534C3.63583 3.9948 3.49353 4.20789 3.39653 4.44241C3.29953 4.67693 3.24974 4.92827 3.25 5.18206V9.05706C3.24947 9.57055 3.45253 10.0633 3.81468 10.4273C4.17683 10.7913 4.66852 10.9969 5.182 10.9991H9.057C9.3121 10.9993 9.56475 10.9493 9.80048 10.8518C10.0362 10.7543 10.2504 10.6112 10.4308 10.4309C10.6112 10.2505 10.7542 10.0363 10.8517 9.80054C10.9492 9.56481 10.9993 9.31216 10.999 9.05706V5.18206C10.9969 4.66858 10.7913 4.17689 10.4273 3.81474C10.0632 3.45259 9.57048 3.24953 9.057 3.25006ZM19.818 3.25006H15.943C15.4295 3.24953 14.9368 3.45259 14.5727 3.81474C14.2087 4.17689 14.0031 4.66858 14.001 5.18206V9.05706C14.0013 9.57203 14.206 10.0658 14.5701 10.43C14.9342 10.7941 15.428 10.9988 15.943 10.9991H19.818C20.3315 10.9969 20.8232 10.7913 21.1853 10.4273C21.5475 10.0633 21.7505 9.57055 21.75 9.05706V5.18206C21.7503 4.92827 21.7005 4.67693 21.6035 4.44241C21.5065 4.20789 21.3642 3.9948 21.1847 3.81534C21.0053 3.63589 20.7922 3.49359 20.5577 3.39659C20.3231 3.29959 20.0718 3.2498 19.818 3.25006Z" stroke="#0F4539" stroke-width="1.5" stroke-linecap="round" stroke-linejoin="round"/>
</svg>
