<svg width="17" height="21" viewBox="0 0 17 21" fill="none" xmlns="http://www.w3.org/2000/svg">
<path d="M5.5 15.5V13.5M8.5 15.5V11.5M11.5 15.5V9.5M13.5 19.5H3.5C2.96957 19.5 2.46086 19.2893 2.08579 18.9142C1.71071 18.5391 1.5 18.0304 1.5 17.5V3.5C1.5 2.96957 1.71071 2.46086 2.08579 2.08579C2.46086 1.71071 2.96957 1.5 3.5 1.5H9.086C9.3512 1.50006 9.60551 1.60545 9.793 1.793L15.207 7.207C15.3946 7.39449 15.4999 7.6488 15.5 7.914V17.5C15.5 18.0304 15.2893 18.5391 14.9142 18.9142C14.5391 19.2893 14.0304 19.5 13.5 19.5Z" stroke="#0F4539" stroke-width="1.5" stroke-linecap="round" stroke-linejoin="round"/>
</svg>
